<?xml version="1.0" standalone="no"?>
<!DOCTYPE svg PUBLIC "-//W3C//DTD SVG 20010904//EN"
 "http://www.w3.org/TR/2001/REC-SVG-20010904/DTD/svg10.dtd">
<svg version="1.0" xmlns="http://www.w3.org/2000/svg"
 width="560.000000pt" height="560.000000pt" viewBox="0 0 560.000000 560.000000"
 preserveAspectRatio="xMidYMid meet">
<metadata>
Created by potrace 1.11, written by Peter Selinger 2001-2013
</metadata>
<g transform="translate(0.000000,560.000000) scale(0.100000,-0.100000)"
fill="#000000" stroke="none">
<path d="M1600 5200 l0 -400 -400 0 -400 0 0 -400 0 -400 -400 0 -400 0 0
-2000 0 -2000 2000 0 2000 0 0 400 0 400 400 0 400 0 0 400 0 400 400 0 400 0
0 2000 0 2000 -2000 0 -2000 0 0 -400z m1060 -2160 l0 -840 470 0 470 0 0
-240 0 -240 -780 0 -780 0 0 1080 0 1080 310 0 310 0 0 -840z"/>
</g>
</svg>
